<svg xmlns="http://www.w3.org/2000/svg" enable-background="new 0 0 24 24" viewBox="0 0 24 24" id="joomla"><polygon points="6.972 9.46 6.972 9.46 6.971 9.458"></polygon><path fill="#4F91CD" d="M17.641,21.421c0.295,1.467,1.591,2.576,3.156,2.576c1.768,0,3.203-1.435,3.203-3.218c0-1.618-1.206-2.946-2.764-3.165l0.002-0.002c0.439-1.752-0.048-3.67-1.409-5.031c-0.632-0.654,0.268,0.251-5.33-5.34l-2.374,2.373l5.341,5.34c0.766,0.766,0.766,2.013,0,2.78c-0.685,0.686-1.876,0.911-2.968-0.187l-2.358,2.373C13.618,21.539,15.782,21.999,17.641,21.421L17.641,21.421z"></path><path fill="#F9AE40" d="M3.862,11.645c2.683,2.677,0.647,0.67,5.345,5.34l2.358-2.373L6.235,9.282c-0.766-0.766-0.766-2.031,0-2.797C6.922,5.8,8.105,5.575,9.204,6.673L11.578,4.3c-1.575-1.574-3.424-2.013-5.17-1.607C6.157,1.178,4.844,0.005,3.236,0.005c-1.768,0-3.203,1.435-3.203,3.219L0.032,3.225c0,1.532,1.061,2.812,2.502,3.123C1.986,8.174,2.427,10.226,3.862,11.645L3.862,11.645z"></path><path fill="#457EB2" d="M14.497,17.547l-2.358,2.373c1.074,1.175,2.509,1.739,3.926,1.739c0.535,0,1.067-0.08,1.576-0.239c0.295,1.467,1.591,2.576,3.156,2.576c0.895,0,1.704-0.368,2.286-0.962l-5.468-5.468c-0.046,0.058-0.096,0.114-0.15,0.168c-0.346,0.347-0.822,0.575-1.348,0.575C15.601,18.31,15.037,18.091,14.497,17.547L14.497,17.547z"></path><path fill="#D99738" d="M0.983,0.934C0.397,1.517,0.033,2.326,0.033,3.223L0.032,3.225c0,1.532,1.061,2.812,2.502,3.123c-0.548,1.826-0.107,3.879,1.328,5.297c2.683,2.677,0.647,0.67,5.345,5.34l2.358-2.373L6.235,9.282c-0.766-0.766-0.766-2.031,0-2.797c0.05-0.05,0.102-0.097,0.157-0.141L0.983,0.934L0.983,0.934z"></path><path fill="#EE4035" d="M23.966,3.219C23.966,1.441,22.53,0,20.762,0c-1.623,0-2.968,1.206-3.187,2.764c-1.811-0.53-3.841-0.08-5.267,1.345c-0.98,1.023-3.808,3.83-5.335,5.351l2.372,2.371c0.536-0.536,4.806-4.805,5.341-5.346c0.765-0.766,2.014-0.766,2.78,0c0.686,0.686,0.911,1.875-0.188,2.968l2.359,2.373c1.672-1.671,2.062-3.621,1.548-5.421C22.75,6.187,23.966,4.842,23.966,3.219L23.966,3.219z"></path><path fill="#7AC043" d="M3.203,24c1.533,0,2.813-1.061,3.14-2.502c1.753,0.439,3.67-0.032,5.048-1.393c1.72-1.714,0.653-0.664,5.33-5.339l0.001,0.001l-2.357-2.374c-4.661,4.628-2.701,2.699-5.341,5.346c-0.766,0.766-2.015,0.766-2.781,0c-0.701-0.718-0.905-1.891,0.172-2.968l-2.357-2.373c-1.619,1.618-2.036,3.492-1.581,5.266C1.045,17.985,0,19.266,0,20.781C0,22.565,1.436,24,3.203,24L3.203,24z"></path><path fill="#CF382E" d="M20.762,0c-1.623,0-2.968,1.206-3.187,2.764c-0.49-0.143-0.996-0.215-1.502-0.215c-1.364,0-2.725,0.521-3.765,1.56c-0.98,1.023-3.808,3.83-5.335,5.351l2.372,2.371c0.536-0.536,4.806-4.805,5.341-5.346c0.383-0.383,0.886-0.574,1.39-0.574c0.469,0,0.938,0.166,1.31,0.498l5.553-5.553C22.366,0.325,21.602,0,20.762,0L20.762,0z"></path><path fill="#6AA73A" d="M4.057,12.398c-1.619,1.618-2.036,3.492-1.581,5.266C1.045,17.985,0,19.266,0,20.781c0,0.84,0.318,1.602,0.84,2.174l5.313-5.313c-0.627-0.724-0.769-1.841,0.261-2.871L4.057,12.398L4.057,12.398z"></path></svg>